<svg width="116" height="24" viewBox="0 0 116 24" fill="none" xmlns="http://www.w3.org/2000/svg">
<g clip-path="url(#clip0_11659:483)">
<path d="M27.495 19.7041V6.36013H23.495C23.043 6.36013 22.875 6.07213 22.875 5.37213V4.75213C22.875 4.04813 23.043 3.76013 23.495 3.76013H34.5589C35.0149 3.76013 35.1789 4.04813 35.1789 4.75213V5.37213C35.1789 6.07213 34.9709 6.36013 34.5589 6.36013H30.5949V19.7041C30.5949 20.1601 30.2229 20.4081 29.3549 20.4081H28.7349C27.867 20.4001 27.495 20.1601 27.495 19.7041Z" fill="#092844"/>
<path d="M53.1484 14.2921C53.1484 10.3681 55.0924 8.22009 58.7484 8.22009C62.4044 8.22009 64.3244 10.3681 64.3244 14.2921C64.3244 18.2161 62.4004 20.3641 58.7684 20.3641C55.1364 20.3641 53.1484 18.2161 53.1484 14.2921ZM61.3284 14.2921C61.3284 11.7721 60.5284 10.4921 58.7684 10.4921C57.0084 10.4921 56.1644 11.7721 56.1644 14.2921C56.1644 16.8121 56.9644 18.0921 58.7684 18.0921C60.5724 18.0921 61.3284 16.8001 61.3284 14.2921Z" fill="#092844"/>
<path d="M66.0004 8.21985H67.9404C67.9843 8.21875 68.0279 8.22659 68.0687 8.24289C68.1095 8.25918 68.1465 8.2836 68.1776 8.31465C68.2086 8.3457 68.233 8.38274 68.2493 8.42351C68.2656 8.46429 68.2734 8.50795 68.2724 8.55185L68.3964 10.2839C68.9724 9.33585 69.8003 8.50785 70.9963 8.50785C72.0723 8.50785 72.3603 8.90785 72.3603 9.62385C72.3603 10.0799 72.1123 11.3599 71.7003 11.3599C71.3201 11.2647 70.9339 11.1952 70.5443 11.1519C69.4683 11.1519 68.7244 12.1039 68.5444 12.4319V19.7039C68.5444 20.1599 68.1724 20.4079 67.2644 20.4079H66.8924C66.0244 20.4079 65.6524 20.1599 65.6524 19.7039V8.55185C65.6517 8.50671 65.6604 8.46192 65.6779 8.42029C65.6954 8.37866 65.7213 8.34108 65.7539 8.30992C65.7866 8.27875 65.8253 8.25467 65.8678 8.23917C65.9102 8.22367 65.9553 8.21709 66.0004 8.21985Z" fill="#092844"/>
<path d="M78.1012 19.6641V4.25613C78.1012 3.92413 78.3892 3.76013 79.0092 3.76013H79.2012C79.8612 3.76013 80.1092 3.96413 80.1092 4.25613V18.5881H86.5092C86.8412 18.5881 86.9652 18.7961 86.9652 19.2921V19.6641C86.9652 20.1601 86.8412 20.3641 86.5092 20.3641H78.8012C78.7059 20.3792 78.6083 20.3715 78.5165 20.3416C78.4247 20.3118 78.3413 20.2606 78.273 20.1924C78.2047 20.1241 78.1536 20.0407 78.1237 19.9489C78.0939 19.8571 78.0862 19.7595 78.1012 19.6641Z" fill="#092844"/>
<path d="M102.223 3.71604H101.423C101.237 3.68558 101.047 3.7068 100.872 3.77735C100.698 3.84791 100.547 3.96509 100.435 4.11604L95.4466 12.68L90.4466 4.13204C90.3266 3.88404 90.0466 3.73204 89.4586 3.73204H88.6307C87.9707 3.73204 87.7227 3.94004 87.7227 4.22804V19.868C87.7227 20.2 88.0107 20.364 88.6307 20.364H88.7986C89.4626 20.364 89.7106 20.16 89.7106 19.868V8.26804C89.7179 7.8409 89.7032 7.41367 89.6666 6.98804L89.7506 6.94804C89.903 7.31271 90.0963 7.65892 90.3266 7.98004L94.4986 15.2C94.5337 15.2984 94.6021 15.3815 94.6919 15.4348C94.7818 15.4881 94.8874 15.5084 94.9906 15.492H95.9026C96.0036 15.4911 96.1026 15.4637 96.1897 15.4124C96.2767 15.3612 96.3488 15.2879 96.3986 15.2L100.487 8.13604C100.695 7.80804 100.859 7.47604 101.067 7.10404L101.147 7.14804C101.107 7.54804 101.107 8.01204 101.107 8.42804V19.868C101.107 20.2 101.395 20.364 102.015 20.364H102.179C102.843 20.364 103.091 20.16 103.091 19.868V4.26804C103.171 3.92404 102.883 3.71604 102.223 3.71604Z" fill="#092844"/>
<path d="M105.487 19.248C105.195 19.044 105.031 18.848 105.031 18.672C105.031 18.3 105.607 17.392 105.855 17.392C106.036 17.4393 106.205 17.5238 106.351 17.64C107.434 18.2605 108.66 18.5873 109.907 18.588C111.683 18.588 112.963 17.472 112.963 15.82C112.963 13.92 111.227 13.344 109.411 12.64C107.411 11.84 105.319 11.112 105.319 8.01203C105.319 5.49203 107.387 3.67603 110.519 3.67603C111.511 3.67603 113.039 3.96403 113.827 4.50403C113.948 4.56122 114.053 4.64797 114.132 4.7563C114.211 4.86464 114.262 4.99109 114.279 5.12403C114.279 5.49203 113.783 6.36003 113.535 6.36003C113.308 6.31534 113.096 6.21654 112.915 6.07203C112.168 5.66504 111.33 5.45187 110.479 5.45203C108.703 5.45203 107.463 6.40403 107.463 8.09603C107.463 9.78803 108.951 10.244 110.643 10.896C112.751 11.696 115.107 12.632 115.107 15.856C115.107 18.656 113.039 20.4 109.907 20.4C107.879 20.4 106.227 19.828 105.487 19.248Z" fill="#092844"/>
<path d="M51.8282 17.8879C51.564 17.9349 51.2965 17.9617 51.0282 17.9679C50.4082 17.9679 50.0362 17.6799 50.0362 16.6879V10.5319H51.2722C51.4357 10.5288 51.5916 10.4625 51.7072 10.3469C51.8228 10.2313 51.8891 10.0754 51.8922 9.91189V8.75589C51.8881 8.59273 51.8215 8.43738 51.7061 8.32197C51.5907 8.20657 51.4354 8.13994 51.2722 8.13589H50.0362V5.59989C50.0312 5.43743 49.9641 5.28308 49.8488 5.16852C49.7335 5.05396 49.5787 4.9879 49.4162 4.98389H47.6802C47.5202 4.99093 47.3689 5.05845 47.2568 5.1728C47.1447 5.28715 47.0801 5.43979 47.0762 5.59989V8.11989H46.2762C46.1131 8.12394 45.9577 8.19057 45.8423 8.30597C45.7269 8.42138 45.6603 8.57673 45.6562 8.73989V9.89589C45.6593 10.0594 45.7256 10.2153 45.8412 10.3309C45.9569 10.4465 46.1128 10.5128 46.2762 10.5159H47.0762V16.7279C47.0762 19.3719 48.5242 20.3279 50.3802 20.3279C51.0842 20.3279 52.4482 20.2439 52.4482 19.3359C52.4882 19.1679 52.2402 17.8879 51.8282 17.8879Z" fill="#092844"/>
<path d="M43.8548 8.17993C44.018 8.18399 44.1733 8.25061 44.2887 8.36601C44.4041 8.48142 44.4708 8.63677 44.4748 8.79993V19.7439C44.4708 19.9071 44.4041 20.0624 44.2887 20.1778C44.1733 20.2932 44.018 20.3599 43.8548 20.3639H42.2828C42.1197 20.3599 41.9643 20.2932 41.8489 20.1778C41.7335 20.0624 41.6669 19.9071 41.6628 19.7439V18.5879C41.2265 19.1263 40.6789 19.5638 40.0574 19.8703C39.436 20.1769 38.7556 20.3453 38.0629 20.3639C35.6629 20.3639 34.4629 19.0839 34.4629 16.5639V8.79993C34.4669 8.63677 34.5336 8.48142 34.649 8.36601C34.7644 8.25061 34.9197 8.18399 35.0829 8.17993H36.8189C36.9844 8.1799 37.1434 8.24484 37.2616 8.36078C37.3798 8.47672 37.4477 8.6344 37.4509 8.79993V16.1519C37.4509 17.2679 38.0269 17.8879 39.2269 17.8879C40.2188 17.8879 41.0428 17.1439 41.4988 16.4399V8.79993C41.5019 8.63646 41.5682 8.48054 41.6838 8.36493C41.7994 8.24932 41.9554 8.18301 42.1188 8.17993H43.8548Z" fill="#092844"/>
<path fill-rule="evenodd" clip-rule="evenodd" d="M4.82396 15.2839C4.52085 15.273 4.23313 15.1477 4.01866 14.9332C3.80419 14.7187 3.67889 14.431 3.66797 14.1279V11.4839C3.66797 11.1773 3.78976 10.8833 4.00655 10.6665C4.22334 10.4497 4.51737 10.3279 4.82396 10.3279C5.13055 10.3279 5.42458 10.4497 5.64137 10.6665C5.85816 10.8833 5.97995 11.1773 5.97995 11.4839V14.1279C5.9838 14.2807 5.95652 14.4328 5.89979 14.5748C5.84306 14.7168 5.75805 14.8457 5.64993 14.9539C5.54181 15.062 5.41284 15.147 5.27085 15.2037C5.12886 15.2605 4.97682 15.2877 4.82396 15.2839Z" fill="#0049F8"/>
<path fill-rule="evenodd" clip-rule="evenodd" d="M13.168 15.2839C13.015 15.286 12.8632 15.2576 12.7213 15.2005C12.5794 15.1433 12.4504 15.0584 12.3416 14.9508C12.2329 14.8432 12.1467 14.715 12.088 14.5737C12.0294 14.4324 11.9995 14.2809 12 14.1279V11.4839C12 11.1773 12.1218 10.8833 12.3386 10.6665C12.5554 10.4497 12.8494 10.3279 13.156 10.3279C13.4626 10.3279 13.7566 10.4497 13.9734 10.6665C14.1902 10.8833 14.312 11.1773 14.312 11.4839V14.1279C14.3125 14.2798 14.283 14.4304 14.2251 14.5709C14.1672 14.7114 14.082 14.839 13.9746 14.9465C13.8671 15.0539 13.7395 15.1391 13.599 15.197C13.4585 15.2549 13.308 15.2844 13.156 15.2839" fill="#0049F8"/>
<path fill-rule="evenodd" clip-rule="evenodd" d="M2.51195 9.5C2.74036 9.00875 3.10058 8.59049 3.55254 8.29177C4.00449 7.99306 4.53046 7.82559 5.07193 7.808C5.84894 7.8331 6.58457 8.1641 7.11871 8.72896C7.65285 9.29382 7.94225 10.0468 7.92391 10.824V16.236C7.95942 16.4956 8.08778 16.7336 8.28523 16.9059C8.48268 17.0782 8.73586 17.1731 8.9979 17.1731C9.25995 17.1731 9.51312 17.0782 9.71057 16.9059C9.90802 16.7336 10.0364 16.4956 10.0719 16.236V10.824C10.0525 10.0472 10.341 9.29419 10.8745 8.72921C11.408 8.16423 12.1432 7.8331 12.9199 7.808C13.4411 7.79892 13.9537 7.94253 14.3943 8.22114C14.835 8.49975 15.1845 8.90119 15.3999 9.376C15.9574 10.4684 16.2266 11.6851 16.182 12.9108C16.1374 14.1364 15.7804 15.3303 15.145 16.3793C14.5096 17.4283 13.6167 18.2976 12.5511 18.9048C11.4855 19.5119 10.2824 19.8368 9.05607 19.8486C7.82968 19.8604 6.62061 19.5587 5.54352 18.9722C4.46642 18.3857 3.557 17.5337 2.9015 16.4971C2.24601 15.4606 1.86616 14.2737 1.79798 13.0492C1.72981 11.8246 1.97557 10.6029 2.51195 9.5ZM7.05592 2.4H11.1039V3.964C10.4279 3.80103 9.73522 3.71779 9.0399 3.716C8.3682 3.72266 7.69861 3.7923 7.03992 3.924L7.05592 2.4ZM18.0438 13.468C18.0438 13.22 18.0838 13.012 18.0838 12.764C18.0801 11.1576 17.6501 9.58101 16.8377 8.19518C16.0253 6.80935 14.8597 5.66397 13.4599 4.876V2.4H15.1999C15.5181 2.4 15.8233 2.27357 16.0484 2.04853C16.2734 1.82348 16.3998 1.51826 16.3998 1.2C16.3998 0.88174 16.2734 0.576515 16.0484 0.351472C15.8233 0.126428 15.5181 0 15.1999 0L2.92395 0C2.60404 0.0161685 2.3022 0.153193 2.07944 0.383376C1.85669 0.613559 1.72963 0.91973 1.72396 1.24C1.72396 1.55826 1.85039 1.86348 2.07543 2.08853C2.30047 2.31357 2.60569 2.44 2.92395 2.44H4.69994V4.88C3.61276 5.47459 2.65962 6.28662 1.89987 7.26555C1.14012 8.24447 0.590031 9.36931 0.283846 10.57C-0.0223385 11.7708 -0.0780602 13.0217 0.120151 14.2449C0.318361 15.4681 0.766261 16.6374 1.43596 17.68C4.79993 23.38 13.9119 23.96 17.0118 24C17.2854 23.9917 17.5479 23.89 17.7558 23.712C17.8519 23.6141 17.9271 23.4976 17.9766 23.3697C18.0261 23.2418 18.049 23.1051 18.0438 22.968V13.468Z" fill="#0049F8"/>
</g>
<defs>
<clipPath id="clip0_11659:483">
<rect width="115.111" height="24" fill="white"/>
</clipPath>
</defs>
</svg>
