<svg width="28" height="28" viewBox="0 0 28 28" fill="none" xmlns="http://www.w3.org/2000/svg">
<path fill-rule="evenodd" clip-rule="evenodd" d="M14.0007 5.8864C11.8488 5.8864 9.78505 6.74123 8.26344 8.26283C6.74184 9.78444 5.88701 11.8482 5.88701 14C5.88701 15.0655 6.09688 16.1206 6.50463 17.105C6.91238 18.0894 7.51002 18.9838 8.26344 19.7373C9.01687 20.4907 9.91131 21.0883 10.8957 21.4961C11.8801 21.9038 12.9352 22.1137 14.0007 22.1137C15.0662 22.1137 16.1212 21.9038 17.1056 21.4961C18.09 21.0883 18.9844 20.4907 19.7379 19.7373C20.4913 18.9838 21.0889 18.0894 21.4967 17.105C21.9044 16.1206 22.1143 15.0655 22.1143 14C22.1143 11.8482 21.2595 9.78444 19.7379 8.26283C18.2163 6.74123 16.1525 5.8864 14.0007 5.8864ZM6.98851 6.9879C8.84825 5.12816 11.3706 4.08337 14.0007 4.08337C16.6307 4.08337 19.1531 5.12816 21.0128 6.9879C22.8725 8.84763 23.9173 11.37 23.9173 14C23.9173 15.3023 23.6608 16.5918 23.1625 17.795C22.6641 18.9981 21.9336 20.0913 21.0128 21.0122C20.0919 21.933 18.9987 22.6635 17.7956 23.1618C16.5925 23.6602 15.3029 23.9167 14.0007 23.9167C12.6984 23.9167 11.4089 23.6602 10.2057 23.1618C9.00256 22.6635 7.90936 21.933 6.98851 21.0122C6.06766 20.0913 5.3372 18.9981 4.83885 17.795C4.34049 16.5918 4.08398 15.3023 4.08398 14C4.08398 11.37 5.12877 8.84763 6.98851 6.9879ZM14.0007 9.09179C14.4985 9.09179 14.9022 9.49541 14.9022 9.99331V14C14.9022 14.4979 14.4985 14.9016 14.0007 14.9016C13.5028 14.9016 13.0991 14.4979 13.0991 14V9.99331C13.0991 9.49541 13.5028 9.09179 14.0007 9.09179ZM13.0991 18.0068C13.0991 17.5089 13.5028 17.1053 14.0007 17.1053H14.0107C14.5086 17.1053 14.9122 17.5089 14.9122 18.0068C14.9122 18.5047 14.5086 18.9083 14.0107 18.9083H14.0007C13.5028 18.9083 13.0991 18.5047 13.0991 18.0068Z" fill="#ED9700"/>
</svg>
