<svg width="48" height="48" viewBox="0 0 48 48" fill="none" xmlns="http://www.w3.org/2000/svg">
<path fill-rule="evenodd" clip-rule="evenodd" d="M7 24C7 14.6112 14.6112 7 24 7C33.3888 7 41 14.6112 41 24C41 33.3888 33.3888 41 24 41C14.6112 41 7 33.3888 7 24ZM24 15.5C24.7824 15.5 25.4167 16.1343 25.4167 16.9167V18.3333C25.4167 19.1157 24.7824 19.75 24 19.75C23.2176 19.75 22.5833 19.1157 22.5833 18.3333V16.9167C22.5833 16.1343 23.2176 15.5 24 15.5ZM24 21.1667C24.7824 21.1667 25.4167 21.8009 25.4167 22.5833V31.0833C25.4167 31.8657 24.7824 32.5 24 32.5C23.2176 32.5 22.5833 31.8657 22.5833 31.0833V22.5833C22.5833 21.8009 23.2176 21.1667 24 21.1667Z" fill="#3E64DE"/>
</svg>
