<svg width="27" height="28" viewBox="0 0 27 28" fill="none" xmlns="http://www.w3.org/2000/svg">
<path d="M26 27.5L0 0H16.3165C21.1095 0 23.506 0 24.9758 1.49675C26.4456 2.9935 26.402 5.3896 26.3149 10.1818L26 27.5Z" fill="#3E64DE"/>
<path d="M18.9183 3.33203C18.9896 3.3325 19.0603 3.34571 19.127 3.37104C19.1986 3.39406 19.2649 3.4312 19.322 3.48027C19.3804 3.53524 19.4269 3.60163 19.4585 3.67532L20.6327 6.06274L23.2893 6.45284C23.3655 6.46237 23.4387 6.48832 23.5039 6.52891C23.566 6.56855 23.6224 6.61645 23.6716 6.67129C23.7133 6.73073 23.745 6.79663 23.7653 6.86634C23.7842 6.93097 23.7941 6.99794 23.7945 7.06529C23.7954 7.13757 23.7794 7.20905 23.7477 7.274C23.7153 7.3374 23.6732 7.39533 23.6229 7.44564L21.6899 9.33178L22.1463 11.9884C22.1611 12.0591 22.1611 12.1322 22.1463 12.2029C22.1302 12.2721 22.1025 12.338 22.0644 12.398C22.0287 12.4601 21.9802 12.514 21.922 12.556C21.8034 12.6409 21.6573 12.6785 21.5124 12.6613C21.4431 12.6511 21.3766 12.6265 21.3174 12.5891L18.9183 11.3505L16.5269 12.5891C16.4677 12.6265 16.4012 12.6511 16.3319 12.6613C16.187 12.6785 16.0409 12.6409 15.9223 12.556C15.8641 12.514 15.8156 12.4601 15.7799 12.398C15.7418 12.338 15.7141 12.2721 15.698 12.2029C15.6832 12.1322 15.6832 12.0591 15.698 11.9884L16.1544 9.33178L14.2136 7.45539C14.1649 7.40138 14.1248 7.3402 14.0947 7.274C14.0646 7.2082 14.0468 7.13748 14.042 7.06529C14.0419 6.99598 14.0517 6.927 14.0713 6.86049C14.092 6.78907 14.1272 6.72268 14.1746 6.66544C14.2185 6.60907 14.272 6.56087 14.3326 6.52305C14.3981 6.48424 14.4714 6.46027 14.5472 6.45284L17.2038 6.06274L18.3936 3.66362C18.4245 3.5934 18.4704 3.53081 18.5282 3.48027C18.5852 3.4312 18.6515 3.39406 18.7232 3.37104C18.7856 3.34725 18.8515 3.33407 18.9183 3.33203V3.33203Z" fill="white"/>
</svg>
