<svg width="32" height="32" viewBox="0 0 32 32" fill="none" xmlns="http://www.w3.org/2000/svg">
<rect x="0.5" y="0.5" width="31" height="31" rx="5.5" stroke="#3E64DE"/>
<path d="M15.8474 7.33301C15.9799 7.33388 16.1112 7.35841 16.235 7.40546C16.3681 7.44821 16.4913 7.51719 16.5972 7.60831C16.7057 7.7104 16.792 7.8337 16.8508 7.97054L19.0315 12.4043L23.9651 13.1288C24.1066 13.1465 24.2426 13.1947 24.3636 13.2701C24.4789 13.3437 24.5837 13.4326 24.6751 13.5345C24.7526 13.6449 24.8113 13.7673 24.849 13.8967C24.8843 14.0168 24.9025 14.1411 24.9033 14.2662C24.905 14.4004 24.8753 14.5332 24.8164 14.6538C24.7563 14.7716 24.6781 14.8791 24.5846 14.9726L20.9948 18.4754L21.8424 23.4091C21.8698 23.5405 21.8698 23.6761 21.8424 23.8075C21.8125 23.936 21.7611 24.0584 21.6903 24.1698C21.624 24.2852 21.5338 24.3852 21.4259 24.4632C21.2055 24.6209 20.9342 24.6907 20.6652 24.6588C20.5364 24.6399 20.413 24.5943 20.3029 24.5247L15.8474 22.2245L11.4064 24.5247C11.2963 24.5943 11.1729 24.6399 11.0442 24.6588C10.7751 24.6907 10.5038 24.6209 10.2835 24.4632C10.1755 24.3852 10.0854 24.2852 10.019 24.1698C9.94826 24.0584 9.89683 23.936 9.86689 23.8075C9.83955 23.6761 9.83955 23.5405 9.86689 23.4091L10.7145 18.4754L7.11027 14.9907C7.0198 14.8904 6.94527 14.7768 6.88931 14.6538C6.83349 14.5316 6.80035 14.4003 6.79151 14.2662C6.79126 14.1375 6.80956 14.0094 6.84584 13.8859C6.88432 13.7532 6.94967 13.6299 7.03783 13.5236C7.11935 13.4189 7.21867 13.3294 7.33124 13.2592C7.45293 13.1871 7.58894 13.1426 7.7297 13.1288L12.6634 12.4043L14.873 7.94881C14.9304 7.8184 15.0157 7.70217 15.1229 7.60831C15.2289 7.51719 15.3521 7.44821 15.4852 7.40546C15.601 7.36128 15.7235 7.33679 15.8474 7.33301V7.33301Z" fill="#3E64DE"/>
</svg>
