<svg width="16" height="15" viewBox="0 0 16 15" fill="none" xmlns="http://www.w3.org/2000/svg">
<path fill-rule="evenodd" clip-rule="evenodd" d="M0.540552 0.5H15.4594C15.758 0.5 16 0.742047 16 1.04055V12.2297C16 12.5282 15.758 12.7703 15.4594 12.7703H12.9815V10.5898C13.6213 10.0335 14.027 9.21456 14.027 8.30218C14.027 6.63037 12.6669 5.27026 10.9951 5.27026C9.32326 5.27026 7.96315 6.63037 7.96315 8.30218C7.96315 9.21461 8.36881 10.0335 9.00859 10.5898V12.7703H0.540552C0.242047 12.7703 0 12.5282 0 12.2297V1.04055C0 0.742047 0.242047 0.5 0.540552 0.5ZM2.40539 9.8649H5.20269C5.44151 9.8649 5.63512 9.67129 5.63512 9.43247C5.63512 9.19366 5.44151 9.00004 5.20269 9.00004H2.40539C2.16657 9.00004 1.97296 9.19366 1.97296 9.43247C1.97296 9.67129 2.16657 9.8649 2.40539 9.8649ZM2.40539 7.0676H6.13511C6.37393 7.0676 6.56754 6.87398 6.56754 6.63516C6.56754 6.39635 6.37393 6.20273 6.13511 6.20273H2.40539C2.16657 6.20273 1.97296 6.39635 1.97296 6.63516C1.97296 6.87398 2.16657 7.0676 2.40539 7.0676ZM2.40539 4.27029H8.93242C9.17123 4.27029 9.36485 4.07667 9.36485 3.83786C9.36485 3.59904 9.17123 3.40543 8.93242 3.40543H2.40539C2.16657 3.40543 1.97296 3.59904 1.97296 3.83786C1.97296 4.07667 2.16657 4.27029 2.40539 4.27029ZM10.9952 6.13501C9.80025 6.13501 8.82812 7.10713 8.82812 8.30207C8.82812 9.497 9.80025 10.4691 10.9952 10.4691C12.1901 10.4691 13.1622 9.497 13.1622 8.30207C13.1622 7.10713 12.1901 6.13501 10.9952 6.13501ZM10.8018 13.9375C10.8627 13.9071 10.9289 13.8918 10.9952 13.8918C11.0614 13.8918 11.1276 13.907 11.1886 13.9375L11.8184 14.2524C11.9555 14.321 12.1168 14.2213 12.1168 14.068V11.1182C11.7696 11.2569 11.3913 11.3341 10.9952 11.3341C10.599 11.3341 10.2207 11.257 9.87354 11.1182V14.068C9.87354 14.2213 10.0348 14.321 10.1719 14.2524L10.8018 13.9375Z" fill="#3E64DE"/>
</svg>
