<svg width="228" height="177" viewBox="0 0 228 177" fill="none" xmlns="http://www.w3.org/2000/svg">
<path fill-rule="evenodd" clip-rule="evenodd" d="M113.994 59.6094C112.611 59.6062 111.233 59.7637 109.886 60.079C108.743 60.3464 107.6 59.6369 107.333 58.4942C107.065 57.3515 107.775 56.2083 108.917 55.9408C110.584 55.5507 112.29 55.3556 114.002 55.3594C122.512 55.3604 129.055 60.2198 133.338 64.7886C135.5 67.0939 137.15 69.3911 138.26 71.11C138.816 71.9715 139.241 72.6931 139.529 73.2052C139.673 73.4614 139.783 73.6655 139.859 73.809C139.897 73.8807 139.926 73.9373 139.947 73.9777L139.972 74.026L139.979 74.0408L139.983 74.0478C139.983 74.0485 139.983 74.0493 138.083 74.9996L139.983 74.0493C140.292 74.6658 140.282 75.3935 139.957 76.0013C138.558 78.6181 136.89 81.0816 134.98 83.3519C134.224 84.2499 132.883 84.3653 131.985 83.6097C131.087 82.8541 130.972 81.5136 131.728 80.6156C133.203 78.8623 134.518 76.9811 135.657 74.9946C135.415 74.5762 135.092 74.0386 134.69 73.4157C133.679 71.8505 132.182 69.7689 130.238 67.6954C126.311 63.507 120.813 59.6094 113.999 59.6094L113.994 59.6094ZM99.7047 60.3057C100.551 59.6596 101.744 59.7393 102.497 60.492L110.852 68.8471C110.857 68.852 110.862 68.857 110.867 68.8619L120.137 78.1319C120.142 78.1369 120.147 78.1419 120.152 78.147L128.507 86.502C128.941 86.9355 129.166 87.5352 129.125 88.147C129.083 88.7587 128.78 89.3229 128.293 89.6946C124.189 92.8223 119.193 94.5551 114.034 94.6394L113.999 94.6397C105.488 94.6397 98.9439 89.7798 94.6603 85.2105C92.4991 82.9052 90.8489 80.6081 89.7388 78.8892C89.1824 78.0277 88.7582 77.3061 88.4702 76.794C88.3261 76.5378 88.2158 76.3337 88.1399 76.1902C88.1019 76.1184 88.0725 76.0618 88.0517 76.0214L88.0271 75.9731L88.0196 75.9583L88.0161 75.9514C88.0157 75.9506 88.0154 75.9499 89.916 74.9996L88.0154 75.9499C87.7066 75.3323 87.7171 74.6032 88.0436 73.9948C90.9102 68.6526 94.8861 63.9852 99.7047 60.3057ZM92.3432 75.0066C92.5846 75.4246 92.9073 75.9616 93.3089 76.5835C94.3198 78.1487 95.8169 80.2303 97.7608 82.3038C101.684 86.4886 107.176 90.3831 113.982 90.3897C117.405 90.3308 120.741 89.3913 123.675 87.6802L118.496 82.5016C118.138 82.7291 117.763 82.9306 117.374 83.104C116.307 83.5792 115.156 83.8347 113.989 83.8553C112.822 83.8758 111.662 83.6611 110.58 83.2239C109.497 82.7867 108.514 82.1359 107.689 81.3104C106.863 80.4849 106.212 79.5016 105.775 78.4192C105.338 77.3367 105.123 76.1773 105.144 75.0101C105.164 73.8428 105.42 72.6917 105.895 71.6253C106.068 71.236 106.27 70.8609 106.497 70.5027L100.838 64.8438C97.4389 67.7107 94.5636 71.1494 92.3432 75.0066ZM109.654 73.6599C109.49 74.1167 109.402 74.5981 109.393 75.085C109.382 75.6816 109.492 76.2742 109.716 76.8275C109.939 77.3807 110.272 77.8833 110.694 78.3052C111.116 78.7271 111.618 79.0598 112.171 79.2832C112.725 79.5067 113.317 79.6164 113.914 79.6059C114.401 79.5973 114.882 79.5088 115.339 79.3445L109.654 73.6599Z" fill="#95AAED"/>
<path fill-rule="evenodd" clip-rule="evenodd" d="M88.4134 49.4134C89.2433 48.5835 90.5888 48.5835 91.4186 49.4134L139.585 97.5801C140.415 98.4099 140.415 99.7554 139.585 100.585C138.755 101.415 137.41 101.415 136.58 100.585L88.4134 52.4186C87.5835 51.5888 87.5835 50.2433 88.4134 49.4134Z" fill="#95AAED"/>
</svg>
