<svg width="14" height="17" viewBox="0 0 14 17" fill="none" xmlns="http://www.w3.org/2000/svg">
<path fill-rule="evenodd" clip-rule="evenodd" d="M12.8681 0.103516H0.996724C0.722422 0.103516 0.5 0.325937 0.5 0.600239V15.0173C0.5 15.2916 0.722422 15.514 0.996724 15.514H6.94033V13.5104C6.35242 12.9992 5.97965 12.2467 5.97965 11.4082C5.97965 9.87196 7.22948 8.62213 8.76574 8.62213C10.302 8.62213 11.5518 9.87196 11.5518 11.4082C11.5518 12.2466 11.1791 12.9991 10.5912 13.5104V15.514H12.8681C13.1424 15.514 13.3649 15.2916 13.3649 15.0173V0.600239C13.3649 0.325937 13.1424 0.103516 12.8681 0.103516ZM2.79785 2.75658C2.79785 2.50283 3.00356 2.29712 3.25731 2.29712H9.23028C9.48404 2.29712 9.68974 2.50283 9.68974 2.75658C9.68974 3.01033 9.48404 3.21604 9.23029 3.21604H3.25731C3.00356 3.21604 2.79785 3.01033 2.79785 2.75658ZM3.25731 4.59448C3.00356 4.59448 2.79785 4.80019 2.79785 5.05394C2.79785 5.30769 3.00356 5.5134 3.25731 5.5134H6.47353C6.72728 5.5134 6.93299 5.30769 6.93299 5.05394C6.93299 4.80019 6.72728 4.59448 6.47353 4.59448H3.25731ZM2.79785 7.35155C2.79785 7.0978 3.00356 6.89209 3.25731 6.89209H5.55461C5.80836 6.89209 6.01407 7.0978 6.01407 7.35155C6.01407 7.6053 5.80836 7.81101 5.55461 7.81101H3.25731C3.00356 7.81101 2.79785 7.6053 2.79785 7.35155ZM8.76576 9.41699C7.66771 9.41699 6.77441 10.3103 6.77441 11.4083C6.77441 12.5064 7.66771 13.3997 8.76576 13.3997C9.86381 13.3997 10.7571 12.5064 10.7571 11.4083C10.7571 10.3103 9.86381 9.41699 8.76576 9.41699ZM8.58782 16.5866C8.64381 16.5586 8.70465 16.5446 8.76554 16.5446C8.82643 16.5446 8.88727 16.5586 8.94326 16.5866L9.52201 16.876C9.64799 16.939 9.79621 16.8474 9.79621 16.7065V13.9958C9.47716 14.1234 9.12954 14.1943 8.76554 14.1943C8.40148 14.1943 8.05392 14.1234 7.73486 13.9958V16.7065C7.73486 16.8474 7.88308 16.939 8.00907 16.876L8.58782 16.5866Z" fill="#3E64DE"/>
</svg>
